<?xml version="1.0" standalone="no"?>
<!DOCTYPE svg PUBLIC "-//W3C//DTD SVG 20010904//EN"
 "http://www.w3.org/TR/2001/REC-SVG-20010904/DTD/svg10.dtd">
<svg version="1.0" xmlns="http://www.w3.org/2000/svg"
 width="1080.000000pt" height="1080.000000pt" viewBox="0 0 1080.000000 1080.000000"
 preserveAspectRatio="xMidYMid meet">
<metadata>
Created by potrace 1.11, written by Peter Selinger 2001-2013
</metadata>
<g transform="translate(0.000000,1080.000000) scale(0.100000,-0.100000)"
fill="#000000" stroke="none">
<path d="M0 5400 l0 -5400 5400 0 5400 0 0 5400 0 5400 -5400 0 -5400 0 0
-5400z m6310 4350 c15 -24 13 -1973 -2 -1988 -9 -9 -209 -12 -838 -12 -629 0
-829 -3 -838 -12 -9 -9 -12 -570 -12 -2462 0 -2265 -1 -2451 -17 -2468 -15
-17 -63 -18 -1108 -18 l-1092 0 -11 25 c-9 19 -12 658 -12 2471 0 1345 -2
2450 -6 2455 -3 5 -345 9 -837 9 -458 0 -838 4 -845 8 -10 7 -12 207 -12 990
0 540 0 987 0 992 0 6 10 15 23 20 13 5 1158 8 2810 7 2466 -2 2789 -4 2797
-17z m1628 -2081 c210 -30 516 -113 575 -154 12 -8 27 -15 34 -15 7 0 54 -21
105 -46 131 -65 157 -80 177 -98 10 -9 20 -16 24 -16 14 0 182 -120 274 -197
160 -132 368 -360 464 -508 74 -113 101 -160 148 -255 18 -36 37 -73 41 -82 9
-15 70 -172 90 -228 44 -124 87 -339 106 -530 30 -300 3 -669 -68 -920 -5 -19
-16 -57 -23 -85 -56 -206 -217 -519 -345 -669 -105 -124 -168 -191 -231 -247
-213 -188 -365 -274 -684 -388 -85 -31 -273 -76 -380 -91 -38 -6 -117 -18
-175 -26 -137 -20 -738 -38 -757 -22 -11 9 -13 174 -11 887 l3 876 105 11
c188 21 291 58 377 137 54 50 78 88 103 167 38 119 20 287 -40 385 -68 111
-201 167 -394 168 -88 0 -126 -4 -183 -22 -40 -12 -77 -29 -84 -37 -6 -8 -17
-14 -24 -14 -21 0 -106 -100 -128 -150 -10 -25 -29 -76 -40 -115 l-21 -70 -3
-2293 -3 -2292 -1010 2 -1010 3 0 2275 c0 2041 5 2487 24 2518 2 4 9 50 15
102 12 100 48 270 80 380 141 477 479 923 919 1213 119 78 146 94 237 142 33
17 69 36 80 43 11 6 43 21 70 32 28 12 68 30 90 40 110 50 322 117 480 153
290 67 686 81 993 36z"/>
</g>
</svg>
